<svg width="24" height="22" viewBox="0 0 24 22" fill="none" xmlns="http://www.w3.org/2000/svg">
<path d="M8.06692 8.29368C9.14355 8.29368 10.1761 7.86599 10.9374 7.1047C11.6987 6.34341 12.1264 5.31087 12.1264 4.23424C12.1264 3.15761 11.6987 2.12508 10.9374 1.36379C10.1761 0.602494 9.14355 0.174805 8.06692 0.174805C6.99029 0.174805 5.95776 0.602494 5.19646 1.36379C4.43517 2.12508 4.00748 3.15761 4.00748 4.23424C4.00748 5.31087 4.43517 6.34341 5.19646 7.1047C5.95776 7.86599 6.99029 8.29368 8.06692 8.29368ZM18.2155 9.64683C19.1127 9.64683 19.9732 9.29042 20.6076 8.65601C21.242 8.0216 21.5984 7.16115 21.5984 6.26396C21.5984 5.36677 21.242 4.50633 20.6076 3.87191C19.9732 3.2375 19.1127 2.8811 18.2155 2.8811C17.3183 2.8811 16.4579 3.2375 15.8235 3.87191C15.1891 4.50633 14.8326 5.36677 14.8326 6.26396C14.8326 7.16115 15.1891 8.0216 15.8235 8.65601C16.4579 9.29042 17.3183 9.64683 18.2155 9.64683ZM0.78023 19.698C0.514927 19.5326 0.301835 19.2956 0.165587 19.0142C0.0293388 18.7329 -0.0245012 18.4187 0.0102905 18.108C0.259751 16.1474 1.21561 14.345 2.69874 13.0386C4.18187 11.7323 6.09048 11.0115 8.06692 11.0115C10.0434 11.0115 11.952 11.7323 13.4351 13.0386C14.9182 14.345 15.8741 16.1474 16.1236 18.108C16.202 18.74 15.8908 19.3529 15.3523 19.6966C13.1781 21.0899 10.6492 21.8287 8.06692 21.8251C5.48431 21.8294 2.95493 21.091 0.78023 19.698ZM18.2155 19.1188H18.0721C18.1668 18.717 18.1912 18.2921 18.137 17.8564C17.9058 15.9962 17.1618 14.237 15.9882 12.7753C16.7435 12.4781 17.5504 12.3349 18.3618 12.3539C19.1732 12.3729 19.9725 12.5539 20.713 12.8862C21.4534 13.2185 22.12 13.6954 22.6736 14.2889C23.2272 14.8823 23.6566 15.5804 23.9366 16.3422C24.0226 16.5854 24.0211 16.8509 23.9321 17.0931C23.8432 17.3352 23.6725 17.5386 23.4495 17.6683C21.87 18.6206 20.0599 19.1222 18.2155 19.1188Z" fill="black"/>
</svg>
