<?xml version="1.0" encoding="UTF-8"?><svg id="Capa_1" xmlns="http://www.w3.org/2000/svg" viewBox="0 0 92.2 92.2"><defs><style>.cls-1{fill:#fff;}.cls-2{fill:#4d2ce2;}</style></defs><circle class="cls-2" cx="46.1" cy="46.1" r="46.1"/><path class="cls-1" d="M38.91,41.15c1.97,0,3.85-.78,5.25-2.17,1.39-1.39,2.17-3.28,2.17-5.25s-.78-3.85-2.17-5.25c-1.39-1.39-3.28-2.17-5.25-2.17s-3.85,.78-5.25,2.17-2.17,3.28-2.17,5.25,.78,3.85,2.17,5.25c1.39,1.39,3.28,2.17,5.25,2.17Zm18.55,2.47c1.64,0,3.21-.65,4.37-1.81,1.16-1.16,1.81-2.73,1.81-4.37s-.65-3.21-1.81-4.37c-1.16-1.16-2.73-1.81-4.37-1.81s-3.21,.65-4.37,1.81c-1.16,1.16-1.81,2.73-1.81,4.37s.65,3.21,1.81,4.37c1.16,1.16,2.73,1.81,4.37,1.81Zm-31.86,18.37c-.48-.3-.87-.74-1.12-1.25-.25-.51-.35-1.09-.28-1.66,.46-3.58,2.2-6.88,4.91-9.26,2.71-2.39,6.2-3.7,9.81-3.7s7.1,1.32,9.81,3.7c2.71,2.39,4.46,5.68,4.91,9.26,.14,1.15-.43,2.28-1.41,2.9-3.97,2.55-8.6,3.9-13.31,3.89-4.72,0-9.34-1.34-13.32-3.89Zm31.86-1.06h-.26c.17-.73,.22-1.51,.12-2.31-.42-3.4-1.78-6.61-3.93-9.29,1.38-.54,2.86-.8,4.34-.77,1.48,.03,2.94,.37,4.3,.97,1.35,.61,2.57,1.48,3.58,2.56,1.01,1.08,1.8,2.36,2.31,3.75,.16,.44,.15,.93,0,1.37-.16,.44-.47,.81-.88,1.05-2.89,1.74-6.19,2.66-9.57,2.65Z"/></svg>