<?xml version="1.0" encoding="UTF-8"?><svg id="Capa_1" xmlns="http://www.w3.org/2000/svg" viewBox="0 0 90.3 90.3"><defs><style>.cls-1{fill:#fff;}.cls-2{fill:#4d2ce2;}</style></defs><circle class="cls-2" cx="45.15" cy="45.15" r="45.15"/><g><path class="cls-1" d="M58.54,39.86v3.8c0,1.1,.9,2,2,2s2-.9,2-2v-6.42c0-.58-.25-1.14-.7-1.52l-11.23-9.62c-.36-.31-.82-.48-1.3-.48h-12.71c-2.74,0-4.97,2.23-4.97,4.97v28.99c0,2.74,2.23,4.97,4.97,4.97h10.49c1.1,0,2-.9,2-2s-.9-2-2-2h-10.49c-.54,0-.97-.44-.97-.97V30.59c0-.54,.43-.97,.97-.97h11.97l.98,.84v9.4h8.99Z"/><path class="cls-1" d="M63.38,46.27l-11.78,11.78v6.62h6.66l11.11-12.02-5.98-6.38Zm-6.44,15.4h-2.34v-2.38l6.62-6.62,2.21,1.98-6.49,7.03Z"/></g></svg>