<svg width="16" height="16" viewBox="0 0 16 16" fill="none" xmlns="http://www.w3.org/2000/svg">
<path fill-rule="evenodd" clip-rule="evenodd" d="M1.44717 0.534236C3.57974 0.182752 5.76879 0 8.00002 0C10.2313 0 12.4203 0.182752 14.5529 0.534236C14.8749 0.587307 15.1111 0.865681 15.1111 1.19203V3.22549C15.1111 3.75592 14.9004 4.26463 14.5253 4.6397L10.3636 8.80146C9.98851 9.17654 9.7778 9.68524 9.7778 10.2157V12.9147C9.7778 13.5223 9.50162 14.0969 9.02719 14.4765L7.30538 15.8539C7.10526 16.014 6.8311 16.0452 6.60012 15.9342C6.36914 15.8232 6.22225 15.5896 6.22225 15.3333V10.2157C6.22225 9.68524 6.01153 9.17654 5.63646 8.80146L1.4747 4.6397C1.09963 4.26463 0.888916 3.75592 0.888916 3.22549V1.19203C0.888916 0.865681 1.12516 0.587307 1.44717 0.534236Z" fill="white"/>
</svg>
