<?xml version="1.0" encoding="UTF-8"?><svg id="Capa_1" xmlns="http://www.w3.org/2000/svg" viewBox="0 0 37.04 36.95"><path d="M18.44,36.94c-2.7,0-5.41,.01-8.11,0C4.29,36.91,0,32.59,0,26.55c0-5.51,0-11.01,0-16.52C.01,4.46,4.42,.02,10,0,15.63,0,21.26,0,26.89,0c5.61,0,10.04,4.32,10.1,9.94,.06,5.66,.06,11.33,0,16.99-.06,5.64-4.39,9.91-10.05,9.99-2.83,.04-5.66,0-8.5,0Zm15.29-18.48c0-2.71,0-5.41,0-8.12-.01-4.13-2.9-7.06-7.01-7.08-5.48-.03-10.95-.02-16.43,0-4.12,.02-7.03,2.93-7.05,7.06-.03,5.44-.03,10.89,0,16.33,.02,4.12,2.95,7.02,7.07,7.03,5.48,.02,10.95,.02,16.43,0,4.06-.02,6.97-2.95,6.99-7.01,.01-2.74,0-5.48,0-8.21Z"/><path d="M18.52,28.54c-5.59,0-10.08-4.49-10.07-10.07,0-5.56,4.53-10.1,10.07-10.1,5.5,0,10.12,4.61,10.13,10.09,0,5.5-4.59,10.07-10.13,10.07Zm6.58-10.03c.02-3.59-2.92-6.57-6.53-6.63-3.63-.05-6.67,2.93-6.69,6.56-.02,3.65,2.94,6.65,6.58,6.68,3.63,.02,6.62-2.95,6.64-6.61Z"/><path d="M28.38,10.73c-1.18-.01-2.11-.94-2.12-2.12-.02-1.21,.95-2.17,2.17-2.16,1.14,0,2.13,.98,2.14,2.11,.02,1.17-1,2.17-2.19,2.16Z"/></svg>