<?xml version="1.0" encoding="UTF-8"?><svg id="Capa_1" xmlns="http://www.w3.org/2000/svg" viewBox="0 0 34.62 34.8"><path d="M11.66,34.8V11.75h6.77v2.94c.45-.47,.7-.72,.94-.98,3.03-3.38,12.09-3.63,14.52,2.31,.39,.94,.68,2,.69,3,.07,5.02,.04,10.05,.04,15.08,0,.19-.05,.39-.09,.69-2.1,0-4.16,0-6.23,0-.72,0-.52-.57-.52-.96-.01-3.52,0-7.04,0-10.55,0-.37,0-.74-.02-1.11-.16-2.67-1.99-4.5-4.47-4.48-2.64,.02-4.78,2.04-4.81,4.67-.05,3.65,0,7.3-.02,10.96,0,1.65,.21,1.47-1.52,1.48-1.73,0-3.47,0-5.26,0Z"/><path d="M7.53,34.74H.79V11.76H7.53v22.98Z"/><path d="M4.09,0c2.35,0,4.2,1.85,4.18,4.21-.02,2.29-1.87,4.14-4.17,4.14C1.81,8.36,.01,6.53,0,4.18-.01,1.84,1.79,0,4.09,0Z"/></svg>