<?xml version="1.0" encoding="UTF-8"?><svg id="Capa_1" xmlns="http://www.w3.org/2000/svg" viewBox="0 0 92.2 92.2"><defs><style>.cls-1{fill:#fff;}.cls-2{fill:#4d2ce2;}</style></defs><circle class="cls-2" cx="46.1" cy="46.1" r="46.1"/><path class="cls-1" d="M70.58,44.63c0-4.19-3.39-7.58-7.58-7.58s-7.58,3.39-7.58,7.58c0,3.46,2.34,6.35,5.51,7.26v5.42c0,5.94-4.83,10.77-10.77,10.77s-10.77-4.83-10.77-10.77v-3.32c6.85-1.34,12.04-7.39,12.04-14.63v-15.19h-6.46v-4.2h-5.96v12.53h5.96v-4.2h2.32v11.06c0,5.94-4.83,10.77-10.77,10.77s-10.77-4.83-10.77-10.77v-11.06h2.02v4.2h5.96v-12.53h-5.96v4.2h-6.15v15.19c0,7.79,6.01,14.2,13.64,14.84v3.1c0,8.22,6.69,14.91,14.91,14.91s14.91-6.69,14.91-14.91v-5.42c3.17-.9,5.51-3.79,5.51-7.26Z"/></svg>