<?xml version="1.0" encoding="UTF-8"?><svg id="Capa_1" xmlns="http://www.w3.org/2000/svg" viewBox="0 0 35.24 28.79"><path d="M17.26,8.84c0-1.02-.12-1.88,.02-2.7C18.2,.52,24.98-1.93,29.43,1.75c.57,.47,1.02,.59,1.67,.28,1.07-.51,2.17-.96,3.38-1.49-.49,1.58-1.51,2.69-2.57,3.9,1.06-.28,2.11-.56,3.32-.87-.71,1.31-1.61,2.29-2.76,3.08-.29,.2-.57,.67-.56,1.01,.4,12.64-9.76,21.15-20.81,21.15-3.72,0-7.21-.9-10.51-2.61-.13-.07-.26-.16-.59-.38,3.71-.22,7.21-.46,9.9-2.86-1.3-.63-2.65-1.13-3.82-1.9-1.19-.78-1.92-2.02-2.52-3.5h2.87c.04-.08,.07-.15,.11-.23-3.3-1.17-5.02-3.51-5.34-6.93,1.06,.28,2.07,.54,3.08,.81,.06-.09,.12-.17,.18-.26C1.25,8.31,.27,5.18,2.21,1.26c4.1,4.38,8.72,7.51,15.05,7.58Z"/></svg>