<?xml version="1.0" encoding="UTF-8"?><svg id="Capa_1" xmlns="http://www.w3.org/2000/svg" viewBox="0 0 119.64 115.49"><defs><style>.cls-1{fill:none;stroke:#fff;stroke-miterlimit:10;stroke-width:3px;}.cls-2{fill:#5962e3;}</style></defs><rect class="cls-2" x="0" y="0" width="119.64" height="115.49" rx="43.41" ry="43.41"/><g><path class="cls-1" d="M53.57,30.83c-14.98,0-27.12,8.98-27.12,20.05,0,4.11,1.67,7.93,4.54,11.11l-.56,13.33,11.56-6.3c3.51,1.23,7.44,1.92,11.58,1.92,14.98,0,27.12-8.98,27.12-20.05s-12.14-20.05-27.12-20.05Z"/><path class="cls-1" d="M81.16,49.78c7.15,2.49,12.04,7.54,12.04,13.36,0,3.08-1.37,5.94-3.71,8.32l.46,9.99-9.46-4.72c-2.87,.92-6.09,1.44-9.48,1.44-7.96,0-14.94-2.84-18.86-7.1"/></g></svg>