<?xml version="1.0" encoding="UTF-8"?><svg id="Capa_1" xmlns="http://www.w3.org/2000/svg" viewBox="0 0 92.2 92.2"><defs><style>.cls-1{fill:#fff;}.cls-2{fill:#4d2ce2;}</style></defs><circle class="cls-2" cx="46.1" cy="46.1" r="46.1"/><path class="cls-1" d="M74.27,27.32c0-.65-.53-1.18-1.18-1.18h0s0,0,0,0h-30.69c-.31,.01-.61,.13-.83,.35-.22,.22-.34,.52-.34,.83v4.24s0,.04,0,.06c0,.65,.53,1.18,1.18,1.18h30.69c.65,0,1.18-.53,1.18-1.18v-4.3Zm0,9.97c0-.65-.53-1.18-1.18-1.18h0s0,0,0,0h-30.69c-.31,.01-.61,.13-.83,.35-.22,.22-.34,.52-.34,.83v4.24s0,.04,0,.06c0,.65,.53,1.18,1.18,1.18h30.69c.65,0,1.18-.53,1.18-1.18v-4.3Zm-39.71-9.97c0-.15-.03-.31-.09-.45-.06-.14-.15-.27-.26-.38-.11-.11-.24-.2-.38-.26-.14-.06-.3-.09-.45-.09-.03,0-.06,0-.08,0h-14.1s-.06,0-.08,0c-.65,0-1.18,.53-1.18,1.18v14.27c0,.65,.53,1.18,1.18,1.18h14.27c.65,0,1.18-.53,1.18-1.18v-14.27Zm39.71,23.29c0-.65-.53-1.18-1.18-1.18h0s0,0,0,0h-30.69c-.31,.01-.61,.13-.83,.35-.22,.22-.34,.52-.34,.83v4.24s0,.04,0,.06c0,.65,.53,1.18,1.18,1.18h30.69c.65,0,1.18-.53,1.18-1.18v-4.3Zm0,9.97c0-.65-.53-1.18-1.18-1.18h0s0,0,0,0h-30.69c-.31,.01-.61,.13-.83,.35-.22,.22-.34,.52-.34,.83v4.24s0,.04,0,.06c0,.65,.53,1.18,1.18,1.18h30.69c.65,0,1.18-.53,1.18-1.18v-4.3Zm-39.71-9.97c0-.65-.53-1.18-1.18-1.18-.03,0-.06,0-.08,0h-14.1s-.06,0-.08,0c-.65,0-1.18,.53-1.18,1.18v14.27c0,.65,.53,1.18,1.18,1.18h14.27c.65,0,1.18-.53,1.18-1.18v-14.27Z"/></svg>