<?xml version="1.0" encoding="UTF-8"?><svg id="Capa_1" xmlns="http://www.w3.org/2000/svg" viewBox="0 0 47.24 50.96"><defs><style>.cls-1{fill:none;stroke:#5962e3;stroke-miterlimit:10;stroke-width:3px;}</style></defs><path class="cls-1" d="M12.1,45.83c-.03-6.69-.04-13.39,.01-20.08,0-.55,.31-1.32,.74-1.63,6.72-4.88,9.45-11.63,9.42-19.72v-.03c0-2.15,2.31-3.58,4.18-2.53,1.1,.62,2.04,1.58,2.52,2.72,1.19,2.82,1.23,5.75,.96,8.71-.12,1.38-.38,2.74-.57,4.12-.27,1.95,0,2.01,2.03,1.96,2.84-.06,5.68-.03,8.53,.04s5.25,2.17,5.61,5c.3,2.35,.32,5.8-.36,10.85-1.9,14.32-11.03,13.64-11.03,13.64-6.44,0-8.99,.56-14.43,.3,0,0-7.62-1.31-7.63-3.37Z"/><rect class="cls-1" x="1.5" y="22.78" width="10.57" height="26.67"/></svg>