<?xml version="1.0" encoding="UTF-8"?><svg id="Capa_1" xmlns="http://www.w3.org/2000/svg" viewBox="0 0 51.1 51.87"><defs><style>.cls-1{fill:none;stroke:#5962e3;stroke-miterlimit:10;stroke-width:3px;}</style></defs><path class="cls-1" d="M11.93,20.85c3.13,9.23,9.24,15.28,18.04,18.73,.25-.22,.46-.31,.51-.46,1.9-5.39,1.62-4.28,6.34-3.63,3.42,.47,6.81,1.13,10.23,1.51,1.86,.21,2.4,1.14,2.51,2.82,.41,5.79-3.77,10.4-9.64,10.52-18.28,.39-35.18-13.8-37.91-31.93-.39-2.59-.59-5.25-.5-7.86C1.7,5.3,6.34,1.24,11.52,1.51c1.86,.1,2.92,.67,3.13,2.83,.38,3.79,1.11,7.54,1.73,11.31,.58,3.5,.47,3.69-2.96,4.76-.42,.13-.84,.25-1.48,.45Z"/></svg>