<svg width="50" height="50" viewBox="0 0 50 50" fill="none" xmlns="http://www.w3.org/2000/svg">
<circle cx="25" cy="25" r="23.75" stroke="#797979" stroke-width="2.5"/>
<path d="M36.7815 37.9303V35.0567C36.7815 33.5325 36.176 32.0707 35.0982 30.9929C34.0204 29.9151 32.5586 29.3096 31.0343 29.3096H19.5401C18.0159 29.3096 16.5541 29.9151 15.4763 30.9929C14.3985 32.0707 13.793 33.5325 13.793 35.0567V37.9303" stroke="#797979" stroke-width="2.5" stroke-linecap="round" stroke-linejoin="round"/>
<path d="M25.2862 23.5626C28.4602 23.5626 31.0333 20.9895 31.0333 17.8155C31.0333 14.6414 28.4602 12.0684 25.2862 12.0684C22.1121 12.0684 19.5391 14.6414 19.5391 17.8155C19.5391 20.9895 22.1121 23.5626 25.2862 23.5626Z" stroke="#797979" stroke-width="2.5" stroke-linecap="round" stroke-linejoin="round"/>
</svg>
